<?xml version="1.0" encoding="utf-8"?>
<!-- Generator: Adobe Illustrator 26.1.0, SVG Export Plug-In . SVG Version: 6.00 Build 0)  -->
<svg version="1.1" id="Layer_1" xmlns="http://www.w3.org/2000/svg" xmlns:xlink="http://www.w3.org/1999/xlink" x="0px" y="0px"
	 viewBox="0 0 2467.5 308.65" style="enable-background:new 0 0 2467.5 308.65;" xml:space="preserve">
<g>
	<path d="M239.83,214.92c0,30.97-10.63,54.33-31.88,70.09c-21.26,15.77-50.88,23.64-88.88,23.64c-13.51,0-26.81-1.2-39.9-3.59
		c-13.09-2.39-24.21-5.28-33.36-8.65c-9.15-3.38-17.31-6.69-24.49-9.92c-7.18-3.23-12.6-6.12-16.26-8.65L0,274.45l31.67-51.93
		c3.38,2.25,8.02,5,13.93,8.23c5.91,3.24,17.03,7.54,33.36,12.88c16.32,5.35,31.38,8.02,45.18,8.02c32.09,0,48.13-11.96,48.13-35.89
		c0-9.57-5.63-17.52-16.89-23.86c-11.26-6.33-24.98-11.61-41.17-15.83c-16.19-4.22-32.37-9.08-48.56-14.57
		c-16.19-5.49-29.91-13.93-41.17-25.34C13.23,124.77,7.6,110.49,7.6,93.31c0-29.84,11.19-52.85,33.57-69.04
		C63.55,8.09,90.36,0,121.6,0c13.23,0,26.24,1.34,39.06,4.01c12.81,2.68,23.5,5.98,32.09,9.92c8.58,3.94,16.18,7.88,22.8,11.82
		c6.61,3.95,11.61,7.18,14.99,9.71l4.65,4.22l-30.4,48.98c-2.82-2.25-6.83-5.07-12.03-8.45c-5.21-3.38-15.62-7.88-31.24-13.51
		c-15.62-5.63-30.76-8.45-45.39-8.45c-14.92,0-25.48,3.59-31.67,10.77c-6.2,7.18-9.29,14.85-9.29,23.01
		c0,5.63,4.08,10.63,12.25,14.99c8.16,4.37,18.29,8.02,30.4,10.98c12.1,2.96,25.33,6.9,39.69,11.82
		c14.36,4.93,27.58,10.49,39.69,16.68c12.1,6.2,22.23,15.2,30.4,27.02C235.74,185.36,239.83,199.16,239.83,214.92z"/>
	<path d="M243.63,5.49h65.45v122.45h130.05V5.49h65.45v297.67h-65.45V185.78H309.07v117.38h-65.45V5.49z"/>
	<path d="M515.54,5.49h65.45v297.67h-65.45V5.49z"/>
	<path d="M591.54,5.49h73.47l131.74,200.56V5.49h65.87v297.67h-73.47L656.98,102.18v200.98h-65.45V5.49z"/>
	<path d="M873.16,303.16V5.49h65.45h140.6v57.85h-140.6v61.65h126.67v58.27H938.61v62.07h140.6v57.85h-140.6H873.16z"/>
	<path d="M1195.32,5.49h87.4c73.47,0,110.2,28.43,110.2,85.29c0,13.51-3.66,25.41-10.98,35.68c-7.32,10.28-15.48,17.39-24.49,21.32
		c12.67,3.66,23.43,11.05,32.3,22.17c8.87,11.13,13.3,24.7,13.3,40.75c0,29.28-9.29,52.01-27.87,68.19
		c-18.58,16.19-49.4,24.28-92.47,24.28h-87.4V5.49z M1260.77,63.34v58.27h21.96c18.29,0,31.31-1.97,39.06-5.91
		c7.74-3.94,11.61-12.24,11.61-24.91c0-11.54-3.8-19-11.4-22.38c-7.6-3.38-20.69-5.07-39.27-5.07H1260.77z M1260.77,179.87v65.45
		h21.96c20.54,0,35.89-2.53,46.02-7.6c10.13-5.07,15.2-14.07,15.2-27.02c0-12.38-5.28-20.62-15.83-24.7
		c-10.56-4.08-25.69-6.12-45.39-6.12H1260.77z"/>
	<path d="M1407.7,5.49h65.45v122.45h130.05V5.49h65.45v297.67h-65.45V185.78h-130.05v117.38h-65.45V5.49z"/>
	<path d="M1715.93,43.7c28.99-28.85,65.16-43.28,108.51-43.28c43.34,0,79.44,14.43,108.3,43.28c28.85,28.86,43.28,65.8,43.28,110.84
		c0,45.04-14.43,81.99-43.28,110.84c-28.86,28.86-64.96,43.28-108.3,43.28c-43.35,0-79.53-14.42-108.51-43.28
		c-28.99-28.85-43.49-65.8-43.49-110.84C1672.43,109.5,1686.93,72.56,1715.93,43.7z M1886.93,90.78
		c-16.61-16.6-37.44-24.91-62.49-24.91c-25.06,0-45.89,8.31-62.49,24.91c-16.61,16.61-24.91,37.86-24.91,63.76
		c0,25.9,8.3,47.15,24.91,63.76c16.61,16.61,37.44,24.91,62.49,24.91c25.05,0,45.88-8.3,62.49-24.91
		c16.6-16.6,24.91-37.86,24.91-63.76C1911.84,128.64,1903.53,107.39,1886.93,90.78z"/>
	<path d="M1980.66,5.49h65.45v239.83h116.11v57.85h-181.56V5.49z"/>
	<path d="M2277.91,5.49h76l113.58,297.67h-70.94l-19.84-53.62h-121.6l-19.84,53.62h-70.94L2277.91,5.49z M2315.91,84.87
		l-39.27,106.82h78.53L2315.91,84.87z"/>
</g>
</svg>
