<?xml version="1.0" encoding="utf-8"?>
<!-- Generator: Adobe Illustrator 26.1.0, SVG Export Plug-In . SVG Version: 6.00 Build 0)  -->
<svg version="1.1" id="Layer_1" xmlns="http://www.w3.org/2000/svg" xmlns:xlink="http://www.w3.org/1999/xlink" x="0px" y="0px"
	 viewBox="0 0 1000 125.09" style="enable-background:new 0 0 1000 125.09;" xml:space="preserve">
<style type="text/css">
	.st0{fill:#FFFFFF;}
</style>
<g>
	<path class="st0" d="M97.2,87.1c0,12.55-4.31,22.02-12.92,28.41c-8.61,6.39-20.62,9.58-36.02,9.58c-5.48,0-10.87-0.49-16.17-1.45
		c-5.3-0.97-9.81-2.14-13.52-3.51c-3.71-1.37-7.02-2.71-9.92-4.02c-2.91-1.31-5.11-2.48-6.59-3.51L0,111.23l12.83-21.05
		c1.37,0.91,3.25,2.03,5.65,3.34c2.4,1.31,6.9,3.05,13.52,5.22c6.61,2.17,12.72,3.25,18.31,3.25c13.01,0,19.51-4.85,19.51-14.55
		c0-3.88-2.28-7.1-6.84-9.67c-4.56-2.57-10.13-4.71-16.68-6.42c-6.56-1.71-13.12-3.68-19.68-5.9c-6.56-2.22-12.12-5.65-16.68-10.27
		c-4.56-4.62-6.84-10.41-6.84-17.37c0-12.09,4.53-21.42,13.6-27.98C25.75,3.28,36.62,0,49.28,0c5.36,0,10.64,0.54,15.83,1.63
		c5.19,1.09,9.52,2.43,13.01,4.02c3.48,1.6,6.56,3.19,9.24,4.79c2.68,1.6,4.71,2.91,6.07,3.94l1.88,1.71L82.99,35.93
		c-1.14-0.91-2.77-2.05-4.88-3.42c-2.11-1.37-6.33-3.19-12.66-5.47c-6.33-2.28-12.47-3.42-18.4-3.42c-6.05,0-10.33,1.45-12.83,4.36
		c-2.51,2.91-3.76,6.02-3.76,9.33c0,2.28,1.65,4.31,4.96,6.07c3.31,1.77,7.41,3.25,12.32,4.45c4.9,1.2,10.27,2.8,16.09,4.79
		c5.82,2,11.18,4.25,16.09,6.76c4.9,2.51,9.01,6.16,12.32,10.95C95.54,75.12,97.2,80.71,97.2,87.1z"/>
	<path class="st0" d="M98.73,2.22h26.52v49.62h52.7V2.22h26.52v120.64h-26.52V75.29h-52.7v47.57H98.73V2.22z"/>
	<path class="st0" d="M208.93,2.22h26.52v120.64h-26.52V2.22z"/>
	<path class="st0" d="M239.73,2.22h29.77l53.39,81.28V2.22h26.69v120.64h-29.77l-53.56-81.45v81.45h-26.52V2.22z"/>
	<path class="st0" d="M353.87,122.86V2.22h26.52h56.98v23.44h-56.98v24.98h51.34v23.61h-51.34v25.15h56.98v23.44h-56.98H353.87z"/>
	<path class="st0" d="M484.43,2.22h35.42c29.77,0,44.66,11.52,44.66,34.57c0,5.48-1.48,10.3-4.45,14.46
		c-2.97,4.17-6.27,7.05-9.92,8.64c5.13,1.48,9.5,4.48,13.09,8.98c3.59,4.51,5.39,10.01,5.39,16.51c0,11.87-3.76,21.08-11.29,27.64
		c-7.53,6.56-20.02,9.84-37.47,9.84h-35.42V2.22z M510.95,25.67v23.61h8.9c7.41,0,12.69-0.8,15.83-2.4c3.14-1.6,4.71-4.96,4.71-10.1
		c0-4.68-1.54-7.7-4.62-9.07c-3.08-1.37-8.38-2.05-15.91-2.05H510.95z M510.95,72.9v26.52h8.9c8.33,0,14.54-1.03,18.65-3.08
		c4.11-2.05,6.16-5.7,6.16-10.95c0-5.02-2.14-8.36-6.42-10.01c-4.28-1.65-10.41-2.48-18.39-2.48H510.95z"/>
	<path class="st0" d="M570.5,2.22h26.52v49.62h52.7V2.22h26.52v120.64h-26.52V75.29h-52.7v47.57H570.5V2.22z"/>
	<path class="st0" d="M695.41,17.71c11.75-11.69,26.41-17.54,43.98-17.54c17.57,0,32.2,5.85,43.89,17.54
		c11.69,11.7,17.54,26.67,17.54,44.92c0,18.25-5.85,33.23-17.54,44.92c-11.7,11.7-26.33,17.54-43.89,17.54
		c-17.57,0-32.23-5.84-43.98-17.54c-11.75-11.69-17.63-26.67-17.63-44.92C677.79,44.38,683.66,29.41,695.41,17.71z M764.71,36.79
		c-6.73-6.73-15.17-10.1-25.33-10.1c-10.15,0-18.6,3.37-25.33,10.1c-6.73,6.73-10.1,15.34-10.1,25.84c0,10.5,3.36,19.11,10.1,25.84
		c6.73,6.73,15.17,10.1,25.33,10.1c10.15,0,18.59-3.36,25.33-10.1c6.73-6.73,10.1-15.34,10.1-25.84
		C774.81,52.13,771.44,43.52,764.71,36.79z"/>
	<path class="st0" d="M802.7,2.22h26.52v97.2h47.06v23.44H802.7V2.22z"/>
	<path class="st0" d="M923.17,2.22h30.8L1000,122.86h-28.75l-8.04-21.73h-49.28l-8.04,21.73h-28.75L923.17,2.22z M938.57,34.39
		l-15.91,43.29h31.83L938.57,34.39z"/>
</g>
</svg>
