<svg width="1569" height="138" viewBox="0 0 1569 138" fill="none" xmlns="http://www.w3.org/2000/svg">
<path d="M1115.32 1.8767C1117.52 1.8767 1117.62 1.7767 1115.72 0.9767C1114.62 0.4767 1107.62 0.0767025 1100.12 0.0767025C1088.52 -0.0232998 1086.32 0.176701 1085.82 1.5767C1084.82 4.2767 1085.12 28.7767 1086.22 29.4767C1086.82 29.7767 1087.22 29.1767 1087.22 27.9767C1087.22 23.7767 1092.82 13.4767 1097.12 9.7767C1101.32 6.1767 1110.92 2.0767 1115.32 1.8767Z" fill="#EC9615"/>
<path d="M1153.02 69.0767C1153.22 15.7767 1153.02 1.4767 1152.02 0.776703C1150.42 -0.123298 1138.82 -0.323299 1137.92 0.676701C1137.52 0.9767 1137.22 31.8767 1137.22 69.1767V137.077L1152.72 136.477L1153.02 69.0767Z" fill="#EC9615"/>
<path d="M1203.42 23.3767C1203.92 13.2767 1204.02 3.7767 1203.52 1.9767C1203.02 0.0767025 1202.22 -0.0232998 1190.82 0.0767025C1184.22 0.176701 1177.42 0.4767 1175.72 0.876702L1172.72 1.5767L1176.72 2.2767C1187.32 4.0767 1197.62 11.9767 1200.22 20.0767C1202.02 25.8767 1203.22 27.0767 1203.42 23.3767Z" fill="#EC9615"/>
<path d="M1224.92 115.577C1224.12 113.477 1223.62 93.2767 1223.22 56.4767L1222.72 0.4767L1215.72 0.176701C1211.82 0.0767025 1208.32 0.176701 1207.92 0.576702C1207.52 0.9767 1207.22 25.4767 1207.22 54.9767C1207.22 113.877 1207.32 114.677 1213.22 122.777C1217.22 128.277 1224.12 132.577 1232.22 134.377C1240.72 136.277 1249.22 137.277 1249.22 136.277C1249.22 135.877 1246.52 134.677 1243.32 133.677C1234.12 130.777 1228.32 124.977 1224.92 115.577Z" fill="#EC9615"/>
<path d="M1312.92 3.4767C1315.22 2.2767 1316.92 0.9767 1316.52 0.576702C1315.62 -0.323299 1290.92 -0.123298 1289.42 0.876702C1288.42 1.4767 1288.92 1.9767 1291.12 2.9767C1295.12 4.5767 1299.82 9.9767 1300.72 13.8767C1301.62 17.9767 1302.82 18.5767 1303.52 15.1767C1304.42 10.8767 1308.42 5.8767 1312.92 3.4767Z" fill="#EC9615"/>
<path d="M1335.72 0.4767L1328.62 0.176701C1323.52 -0.0232998 1321.22 0.276703 1320.32 1.2767C1319.52 2.3767 1319.32 19.8767 1319.42 69.5767L1319.72 136.477H1335.72V0.4767Z" fill="#EC9615"/>
<path d="M1448.12 3.4767C1450.32 2.4767 1451.92 1.2767 1451.62 0.876702C1450.92 -0.223297 1424.52 -0.323299 1423.82 0.776703C1423.62 1.1767 1425.32 2.5767 1427.72 3.8767C1431.02 5.6767 1432.72 7.3767 1434.62 11.3767L1434.77 11.6938C1436.03 14.3996 1437.33 17.2068 1437.52 17.9767C1437.72 18.7767 1438.52 17.4767 1439.22 14.9767C1440.92 8.8767 1443.32 5.6767 1448.12 3.4767Z" fill="#EC9615"/>
<path d="M1082.42 37.9767C1082.82 37.9767 1083.22 29.8767 1083.22 19.9767C1083.22 10.0767 1082.82 1.9767 1082.42 1.9767C1081.92 1.9767 1081.02 3.0767 1080.42 4.3767C1078.92 7.7767 1076.12 8.0767 1068.72 5.4767L1062.12 3.1767L1068.22 9.5767C1075.12 17.0767 1078.42 22.9767 1080.32 31.6767C1081.02 35.1767 1082.02 37.9767 1082.42 37.9767Z" fill="#EC9615"/>
<path d="M1421.92 47.4767C1415.52 26.5767 1403.62 13.0767 1384.92 5.5767C1380.42 3.7767 1375.52 2.6767 1370.92 2.3767C1366.84 2.15002 1365.07 2.0518 1365.04 2.26403C1365.01 2.42631 1365.99 2.77008 1367.72 3.3767C1392.82 11.7767 1406.52 35.1767 1406.22 68.9767C1406.02 92.5767 1400.12 110.177 1388.62 121.777C1382.92 127.477 1378.22 130.277 1367.72 134.577C1363.02 136.477 1371.42 136.077 1378.92 133.977C1399.72 128.277 1413.92 114.577 1420.92 93.4767C1423.42 86.1767 1423.62 84.0767 1423.62 69.4767C1423.72 56.6767 1423.32 52.2767 1421.92 47.4767Z" fill="#EC9615"/>
<path d="M1471.72 31.9767C1474.92 21.4767 1484.42 8.2767 1492.12 4.0767C1493.02 3.5767 1493.42 2.8767 1493.12 2.4767C1492.12 1.5767 1479.52 8.5767 1474.12 13.0767C1465.32 20.3767 1455.52 35.1767 1453.02 44.9767C1447.82 64.6767 1449.62 87.8767 1457.42 103.477C1464.22 116.977 1479.22 131.177 1490.02 134.477C1493.52 135.477 1492.52 133.777 1487.72 130.177C1478.92 123.677 1472.12 110.277 1468.82 92.8767C1465.72 76.5767 1467.12 47.3767 1471.72 31.9767Z" fill="#EC9615"/>
<path d="M1568.32 78.4767C1571.82 48.4767 1558.92 20.3767 1535.22 6.6767C1529.22 3.2767 1525.22 1.7767 1525.22 2.9767C1525.22 3.5767 1525.62 3.9767 1526.12 3.9767C1526.62 3.9767 1529.62 6.2767 1532.62 9.0767C1545.42 20.7767 1551.22 39.2767 1551.22 68.4767C1551.22 91.3767 1547.92 106.777 1540.62 118.977C1537.42 124.377 1530.22 131.977 1528.42 131.977C1527.92 131.977 1526.72 132.877 1525.62 134.077L1523.72 136.177L1528.92 134.177C1535.62 131.577 1545.82 124.377 1551.22 118.277C1560.12 108.077 1566.62 93.0767 1568.32 78.4767Z" fill="#EC9615"/>
<path d="M1011.82 28.4767C1011.82 19.4767 1013.92 13.5767 1019.32 7.4767C1023.42 2.7767 1021.72 2.9767 1016.52 7.8767C1013.92 10.1767 1010.92 14.4767 1009.02 18.5767C1006.22 24.3767 1005.72 26.8767 1005.42 34.0767C1004.72 49.7767 1009.62 59.7767 1022.12 68.2767C1025.62 70.5767 1038.02 74.4767 1049.92 76.9767C1064.02 79.8767 1075.62 86.1767 1079.22 92.9767C1085.52 104.677 1083.32 119.177 1073.82 129.377C1071.82 131.477 1070.22 133.377 1070.22 133.677C1070.22 134.877 1076.42 130.477 1079.92 126.677C1090.52 115.177 1093.92 93.6767 1087.12 79.5767C1081.82 68.2767 1070.42 61.6767 1049.22 57.3767C1036.82 54.8767 1025.42 50.9767 1020.52 47.5767C1013.82 42.9767 1011.72 38.3767 1011.82 28.4767Z" fill="#EC9615"/>
<path d="M1017.42 122.977C1013.82 119.377 1007.22 106.577 1007.22 103.177C1007.22 102.077 1006.82 100.777 1006.22 100.477C1005.12 99.7767 1004.92 103.377 1005.02 121.877C1005.12 133.777 1005.52 136.577 1007.02 134.377C1009.52 130.477 1016.22 130.377 1026.32 133.977C1029.22 135.077 1031.82 135.677 1032.12 135.477C1032.32 135.177 1032.32 134.877 1032.12 134.677C1027.32 131.277 1020.02 125.477 1017.42 122.977Z" fill="#EC9615"/>
<path d="M1449.02 134.477C1446.02 133.577 1440.22 127.977 1440.22 126.077C1440.12 125.177 1439.62 123.177 1438.92 121.577L1437.72 118.777L1435.82 123.877C1434.02 128.877 1430.12 133.277 1426.22 134.477C1421.12 136.077 1425.22 136.977 1437.72 136.977C1450.42 136.977 1454.42 136.077 1449.02 134.477Z" fill="#EC9615"/>
<path d="M955.117 7.40997C945.617 21.61 946.217 19.31 946.917 38.91C947.717 58.41 946.817 62.31 941.117 65.31L938.217 66.81L941.417 69.01C947.517 73.11 948.117 75.31 948.717 95.71C949.117 105.91 949.617 119.31 949.917 125.41L950.517 136.71H957.117H963.617L962.917 112.41C962.617 99.11 961.817 68.71 961.317 44.81C960.717 20.91 960.117 1.20997 959.917 1.00997C959.817 0.809969 957.617 3.70997 955.117 7.40997Z" fill="#757575"/>
<path d="M120.917 15.41C118.817 22.51 116.917 29.21 116.717 30.51C116.617 31.81 114.117 40.81 111.317 50.51C99.8169 89.91 98.0169 96.41 96.6169 102.21C95.8169 105.51 93.4169 114.01 91.3169 121.11C89.1169 128.11 87.3169 134.61 87.3169 135.31C87.3169 136.31 88.9169 136.71 93.6169 136.71H99.8169L103.917 122.41C106.217 114.61 109.917 101.41 112.217 93.21C116.917 76.41 119.317 71.91 125.217 69.01L129.217 67.01L126.217 64.81C123.717 62.91 123.317 62.01 123.317 57.91C123.317 55.31 124.217 50.31 125.317 46.91C126.417 43.41 127.617 39.11 127.917 37.41C128.217 35.61 130.417 27.61 132.917 19.51C135.317 11.51 137.317 4.40996 137.317 3.80996C137.317 3.10996 134.917 2.70996 131.017 2.70996H124.717L120.917 15.41Z" fill="#757575"/>
<path d="M199.017 19.01C196.417 27.91 194.117 36.21 193.817 37.41C192.517 44.71 188.717 55.81 186.317 59.31C184.717 61.61 181.817 64.11 179.617 65.11L175.617 66.81L179.017 70.21C183.317 74.51 183.217 76.21 178.317 92.71C176.117 100.01 174.317 106.61 174.317 107.21C174.317 107.81 172.517 114.41 170.317 121.71C168.117 129.01 166.317 135.41 166.317 135.91C166.317 136.31 169.217 136.71 172.717 136.71H179.017L182.517 124.41C184.517 117.71 187.717 106.31 189.817 99.21C191.917 92.01 194.117 83.71 194.817 80.71C195.517 77.71 198.117 68.31 200.717 59.91C203.217 51.41 205.317 44.01 205.317 43.31C205.317 42.61 207.317 35.41 209.817 27.21C212.317 19.11 214.617 11.01 214.817 9.30996C215.117 7.60996 215.617 5.40996 215.917 4.40996C216.417 2.90996 215.717 2.70996 210.117 2.70996H203.817L199.017 19.01Z" fill="#757575"/>
<path d="M229.817 5.30941C231.817 7.40941 232.317 9.10941 232.317 13.1094C232.417 17.3094 232.517 17.9094 233.417 16.2094C236.317 10.9094 239.817 6.60941 242.717 4.70941L245.817 2.70941H236.617H227.417L229.817 5.30941Z" fill="#757575"/>
<path d="M277.917 8.70996C279.217 12.01 280.417 15.51 280.617 16.41C280.717 17.41 283.017 23.81 285.717 30.71C288.317 37.61 292.717 49.31 295.517 56.71C298.217 64.11 302.717 76.01 305.417 83.01C308.117 90.01 310.317 96.21 310.317 96.81C310.317 97.31 312.317 102.91 314.817 109.21C317.317 115.51 320.317 123.61 321.417 127.21C322.517 130.81 323.717 133.71 324.217 133.71C324.617 133.71 326.417 128.71 328.217 122.61L331.517 111.51L329.317 105.81C328.117 102.71 325.217 94.81 322.817 88.21C320.517 81.61 317.117 72.61 315.317 68.21C313.617 63.81 311.917 59.41 311.717 58.41C311.517 57.31 309.417 51.31 307.017 44.91C301.517 30.41 292.717 6.80996 291.917 4.40996C291.517 3.00996 290.117 2.70996 283.417 2.70996H275.417L277.917 8.70996Z" fill="#757575"/>
<path d="M353.617 3.80996C356.017 5.20996 358.317 10.01 358.317 13.91L358.417 17.21L360.317 13.61C361.317 11.71 364.017 8.40996 366.217 6.40996L370.317 2.70996H361.117C354.317 2.80996 352.317 3.00996 353.617 3.80996Z" fill="#757575"/>
<path d="M378.817 9.40996C376.917 17.01 370.717 39.21 363.817 63.01C361.317 71.61 359.317 79.31 359.317 80.01C359.317 80.61 357.117 88.61 354.417 97.71C351.717 106.81 348.317 118.71 346.817 124.21C345.317 129.71 343.817 134.81 343.617 135.41C343.217 136.41 344.817 136.71 349.717 136.71C355.917 136.71 356.417 136.51 357.317 134.21C357.817 132.81 358.217 131.31 358.117 130.91C358.017 130.51 358.517 128.91 359.117 127.41C359.817 125.81 360.317 123.91 360.317 123.11C360.317 122.31 362.617 114.11 365.317 105.01C368.117 95.91 370.317 87.81 370.317 87.01C370.317 86.31 372.417 78.91 374.917 70.61C377.417 62.31 379.617 54.61 379.817 53.41C379.917 52.21 382.117 44.21 384.617 35.71C390.417 15.61 393.317 5.10996 393.317 3.80996C393.317 3.10996 390.817 2.70996 386.917 2.70996H380.517L378.817 9.40996Z" fill="#757575"/>
<path d="M440.017 4.20918C444.017 5.90918 448.117 12.0092 449.117 17.6092L449.817 21.9092L452.417 12.3092L455.017 2.70918H445.917C437.317 2.80918 437.017 2.80918 440.017 4.20918Z" fill="#757575"/>
<path d="M505.917 7.90959C505.117 10.8096 502.417 20.2096 499.917 28.8096C497.417 37.5096 495.117 45.8096 494.817 47.3096C494.517 48.9096 492.917 54.7096 491.317 60.2096C489.617 65.7096 487.017 75.2096 485.317 81.4096C483.717 87.5096 480.817 97.7096 478.917 103.91C477.017 110.11 475.117 116.61 474.817 118.41C474.517 120.11 473.417 124.41 472.317 127.91C469.517 136.91 469.417 136.71 476.817 136.71C484.217 136.71 484.517 136.41 486.417 126.31C486.917 123.71 489.117 115.61 491.417 108.31C493.617 101.11 495.617 94.1096 495.717 92.7096C495.917 91.3096 496.317 89.5096 496.617 88.7096C496.917 87.9096 498.917 80.9096 501.117 73.2096C503.317 65.5096 506.817 53.3096 508.917 46.2096C510.917 39.0096 514.117 27.6096 515.917 20.7096C517.717 13.8096 519.617 7.00959 520.217 5.40959L521.317 2.70959H514.317H507.417L505.917 7.90959Z" fill="#757575"/>
<path d="M594.717 4.20997C594.317 5.00997 592.617 11.21 590.817 18.01C587.417 30.81 583.817 43.41 576.617 68.31C574.217 76.61 572.017 84.51 571.817 85.81C571.517 87.11 569.317 95.41 566.817 104.21C564.317 113.01 561.217 123.91 559.917 128.41L557.617 136.71H564.217H570.917L572.317 131.41C573.117 128.61 573.817 125.41 574.017 124.31C574.217 123.31 575.517 118.61 576.917 113.81C578.417 109.11 581.117 99.41 582.917 92.21C585.117 84.21 587.417 77.81 589.017 75.41C591.817 71.31 596.217 67.71 598.517 67.71C599.217 67.61 598.517 66.61 597.017 65.31C592.317 61.51 592.417 57.41 597.617 40.21C600.117 31.91 602.417 23.81 602.717 22.11C603.217 19.51 606.117 9.30997 607.817 3.90997C608.517 2.00997 595.417 2.20997 594.717 4.20997Z" fill="#757575"/>
<path d="M671.817 11.21C670.317 15.91 669.017 20.91 668.717 22.21C668.517 23.51 666.717 30.11 664.717 36.91C662.717 43.71 660.717 50.71 660.317 52.51C659.017 57.91 655.117 62.61 649.917 65.21C647.117 66.61 645.717 67.71 646.617 67.71C648.817 67.71 652.317 73.41 652.317 77.01C652.317 80.21 650.817 86.31 644.817 107.71C640.117 124.51 637.317 134.91 637.317 136.01C637.317 136.41 640.217 136.71 643.717 136.71H650.117L650.817 133.51C651.417 130.41 656.417 112.41 664.817 83.21C666.917 76.01 669.017 68.41 669.617 66.21C670.717 61.81 683.217 17.41 686.917 4.40996C687.417 2.90996 686.717 2.70996 680.917 2.70996H674.417L671.817 11.21Z" fill="#757575"/>
<path d="M812.017 3.40957C811.317 4.60957 805.317 25.0096 804.717 28.3096C804.417 29.9096 802.317 37.3096 800.117 44.7096C797.917 52.1096 795.317 61.3096 794.317 65.2096C792.617 71.9096 790.017 81.1096 780.717 113.21C778.417 121.41 776.017 130.11 775.417 132.51L774.517 136.81L781.117 136.51L787.717 136.21L791.517 123.71C793.617 116.81 795.817 109.21 796.317 106.71C797.417 102.01 803.317 81.3096 811.017 54.7096C813.517 46.2096 815.717 38.3096 815.817 37.2096C816.017 36.1096 818.217 28.2096 820.717 19.7096C823.217 11.3096 825.317 4.00957 825.317 3.50957C825.317 2.50957 812.617 2.40957 812.017 3.40957Z" fill="#757575"/>
<path d="M554.117 5.20957C557.517 7.60957 561.317 15.0096 562.017 20.4096C563.717 35.5096 554.017 57.4096 542.917 63.2096L539.817 64.8096L543.717 64.3096C545.817 64.0096 551.017 62.2096 555.217 60.2096C570.617 52.8096 577.817 38.9096 574.417 22.6096C572.917 15.3096 568.617 10.2096 560.917 6.60957C554.217 3.40957 550.417 2.70957 554.117 5.20957Z" fill="#757575"/>
<path d="M94.6168 7.40958C97.2168 10.4096 100.317 20.0096 100.317 25.3096C100.317 27.9096 100.517 29.8096 100.717 29.6096C100.917 29.4096 102.617 24.0096 104.617 17.6096L108.017 6.00958L105.617 7.20958C103.017 8.60958 98.2168 8.20958 94.8168 6.50958C92.9168 5.40958 92.9168 5.50958 94.6168 7.40958Z" fill="#757575"/>
<path d="M717.817 8.6094C692.717 20.5094 674.117 50.7094 672.617 82.2094C672.117 91.4094 672.417 94.7094 674.217 101.609C677.117 113.109 680.317 119.709 685.917 125.709C692.717 133.009 694.917 133.809 690.717 127.609C688.917 124.809 686.617 120.209 685.817 117.409C683.017 107.909 684.217 89.3094 688.817 71.4094C689.717 68.0094 690.917 63.4094 691.417 61.2094C692.617 56.8094 698.317 41.6094 701.217 35.2094C704.817 27.4094 712.217 17.0094 718.317 11.4094C721.717 8.2094 724.317 5.7094 724.117 5.7094C723.917 5.8094 721.117 7.1094 717.817 8.6094Z" fill="#757575"/>
<path d="M770.817 10.9092C775.717 16.7092 776.817 21.5092 776.817 36.2092C776.817 53.8092 775.517 60.9092 768.117 83.7092C761.117 105.409 755.017 116.509 743.517 128.409C742.717 129.109 740.817 130.409 739.117 131.309C734.517 133.709 736.517 134.109 741.617 131.909C764.517 121.809 783.717 95.1092 787.817 67.7092C789.717 55.3092 789.717 49.6092 787.817 38.4092C786.217 28.3092 781.417 18.8092 774.617 11.9092C769.617 7.0092 766.917 6.2092 770.817 10.9092Z" fill="#757575"/>
<path d="M31.317 22.3098C28.917 27.8098 27.617 40.8098 28.717 48.1098C29.817 55.2098 38.317 63.9098 49.917 69.6098C54.817 72.0098 60.417 74.5098 62.417 75.2098C73.217 79.0098 82.117 86.6098 84.717 94.3098C87.717 103.31 86.217 114.71 80.917 122.81C77.117 128.51 77.717 128.61 82.317 123.11C89.417 114.41 93.317 103.41 93.317 91.6098C93.317 74.4098 83.517 63.8098 59.317 55.1098C49.417 51.6098 39.117 44.8098 35.717 39.7098C32.517 35.0098 31.417 26.7098 33.217 21.6098C35.017 16.4098 33.517 17.0098 31.317 22.3098Z" fill="#757575"/>
<path d="M410.417 58.91C408.417 61.31 404.617 64.11 401.117 65.71L395.217 68.51L398.717 70.61C400.817 71.91 403.117 74.71 404.417 77.51L406.717 82.21L408.017 77.21C408.717 74.41 410.417 68.41 411.817 63.71C413.117 59.11 414.117 55.21 414.017 55.01C413.917 54.91 412.317 56.71 410.417 58.91Z" fill="#757575"/>
<path d="M544.217 70.4096C550.217 77.9096 550.717 91.9096 545.617 106.61C541.517 118.51 535.017 127.31 526.417 132.91C521.117 136.21 521.617 136.31 530.417 133.81C538.217 131.61 541.917 129.71 548.117 125.01C561.217 115.01 567.117 95.4096 560.917 82.2096C558.317 76.6096 552.117 70.5096 546.717 68.2096C541.317 66.0096 540.917 66.3096 544.217 70.4096Z" fill="#757575"/>
<path d="M3.71686 118.01C1.41686 125.51 -0.18314 131.91 0.0168603 132.11C0.31686 132.31 1.71686 131.81 3.31686 130.91C5.71686 129.51 6.91686 129.41 11.5169 130.41C14.4169 131.01 17.7169 131.91 18.8169 132.31C20.1169 132.81 19.4169 131.61 16.7169 128.61C12.4169 123.91 9.61686 117.31 8.51686 109.01L7.81686 104.31L3.71686 118.01Z" fill="#757575"/>
<path d="M862.817 114.11C860.717 118.51 850.617 128.01 845.017 130.91C842.717 132.01 838.617 133.81 835.817 134.81L830.817 136.61H844.517L858.217 136.71L860.717 128.41C863.617 119.01 865.317 111.41 864.817 110.91C864.617 110.71 863.717 112.11 862.817 114.11Z" fill="#757575"/>
<path d="M431.317 116.309C431.317 118.109 419.617 129.609 416.717 130.809C415.117 131.509 411.117 133.009 407.817 134.309L401.817 136.609H414.817C426.617 136.709 427.917 136.509 428.017 134.909C428.117 134.009 429.117 129.409 430.317 124.809C431.417 120.209 432.217 116.209 431.917 115.909C431.517 115.609 431.317 115.809 431.317 116.309Z" fill="#757575"/>
<path d="M204.017 119.21C202.817 124.21 199.817 128.31 194.317 132.61L189.117 136.71L201.517 136.61C208.917 136.61 213.017 136.21 211.817 135.81C207.517 134.01 205.817 130.81 205.317 123.31C204.917 117.51 204.617 116.71 204.017 119.21Z" fill="#757575"/>
<path d="M242.317 122.21C241.117 125.91 237.917 129.61 232.317 134.01L228.817 136.71H240.817H252.817L249.517 134.71C245.817 132.41 244.417 129.41 244.117 123.21C244.117 120.71 243.917 118.71 243.717 118.71C243.617 118.71 242.917 120.31 242.317 122.21Z" fill="#757575"/>
<path d="M877.817 126.11C874.517 129.61 870.217 133.41 868.317 134.61L864.817 136.71H876.317C886.917 136.71 887.617 136.61 885.617 135.21C882.917 133.31 881.717 127.61 883.117 123.11C883.617 121.21 884.017 119.71 884.017 119.81C883.917 119.81 881.117 122.71 877.817 126.11Z" fill="#757575"/>
</svg>
